<svg width="48" height="48" viewBox="0 0 48 48" fill="none" xmlns="http://www.w3.org/2000/svg">
<g clip-path="url(#clip0_1_250)">
<path d="M42 9H6.00002C5.20437 9 4.4413 9.31607 3.87869 9.87868C3.31609 10.4413 3.00002 11.2044 3.00002 12V36C3.00002 36.7956 3.31609 37.5587 3.87869 38.1213C4.4413 38.6839 5.20437 39 6.00002 39H42C42.7957 39 43.5587 38.6839 44.1213 38.1213C44.6839 37.5587 45 36.7956 45 36V12C45 11.2044 44.6839 10.4413 44.1213 9.87868C43.5587 9.31607 42.7957 9 42 9ZM25.5 33H22.5C22.1022 33 21.7207 32.842 21.4394 32.5607C21.1581 32.2794 21 31.8978 21 31.5C21 31.1022 21.1581 30.7206 21.4394 30.4393C21.7207 30.158 22.1022 30 22.5 30H25.5C25.8978 30 26.2794 30.158 26.5607 30.4393C26.842 30.7206 27 31.1022 27 31.5C27 31.8978 26.842 32.2794 26.5607 32.5607C26.2794 32.842 25.8978 33 25.5 33ZM37.5 33H31.5C31.1022 33 30.7207 32.842 30.4394 32.5607C30.158 32.2794 30 31.8978 30 31.5C30 31.1022 30.158 30.7206 30.4394 30.4393C30.7207 30.158 31.1022 30 31.5 30H37.5C37.8978 30 38.2794 30.158 38.5607 30.4393C38.842 30.7206 39 31.1022 39 31.5C39 31.8978 38.842 32.2794 38.5607 32.5607C38.2794 32.842 37.8978 33 37.5 33ZM6.00002 16.5V12H42V16.5H6.00002Z" fill="#1D1E1C"/>
</g>
<defs>
<clipPath id="clip0_1_250">
<rect width="48" height="48" fill="white"/>
</clipPath>
</defs>
</svg>
