<svg width="146" height="33" viewBox="0 0 146 33" fill="none" xmlns="http://www.w3.org/2000/svg">
<path d="M43.1853 21.8565C43.1853 22.5551 43.0419 23.0918 42.7551 23.4668C42.4757 23.8418 42.0088 24.0293 41.3544 24.0293C40.7367 24.0293 40.2993 23.8418 40.0419 23.4668C39.7919 23.0918 39.6669 22.5551 39.6669 21.8565V10.1984C39.6669 9.4999 39.7919 8.96314 40.0419 8.58814C40.2993 8.21314 40.7367 8.02563 41.3544 8.02563C42.0088 8.02563 42.4757 8.21314 42.7551 8.58814C43.0419 8.96314 43.1853 9.4999 43.1853 10.1984V21.8565Z" fill="#1D1E1C"/>
<path d="M44.2534 18.4707C44.2534 17.6912 44.3783 16.956 44.6284 16.2648C44.8857 15.5662 45.268 14.956 45.7754 14.4339C46.2902 13.9118 46.9299 13.4964 47.6946 13.1876C48.4666 12.8787 49.371 12.7244 50.4078 12.7244C51.4005 12.7244 52.2791 12.8677 53.0438 13.1545C53.8086 13.4413 54.4519 13.842 54.9739 14.3567C55.496 14.864 55.8931 15.4706 56.1652 16.1765C56.4372 16.875 56.5733 17.6398 56.5733 18.4707C56.5733 19.2428 56.4445 19.9743 56.1872 20.6655C55.9299 21.3493 55.5438 21.9523 55.0291 22.4744C54.5144 22.989 53.871 23.4008 53.099 23.7097C52.3269 24.0111 51.4298 24.1618 50.4078 24.1618C49.4005 24.1618 48.5108 24.0185 47.7386 23.7317C46.9739 23.4376 46.3306 23.0368 45.8086 22.5294C45.2938 22.0148 44.9041 21.4119 44.6394 20.7207C44.382 20.0222 44.2534 19.2721 44.2534 18.4707ZM47.9262 18.4707C47.9262 18.956 47.9703 19.4192 48.0585 19.8604C48.1467 20.2942 48.2865 20.6766 48.4776 21.0075C48.6761 21.3383 48.9335 21.603 49.2497 21.8015C49.5659 21.9927 49.9519 22.0883 50.4078 22.0883C50.8269 22.0883 51.1909 22.0001 51.4997 21.8236C51.8159 21.6472 52.0732 21.4008 52.2718 21.0846C52.4776 20.7685 52.6321 20.3898 52.735 19.9486C52.8379 19.5001 52.8894 19.0075 52.8894 18.4707C52.8894 17.9854 52.8416 17.5258 52.7461 17.092C52.6578 16.6509 52.5144 16.2648 52.3159 15.9339C52.1174 15.5957 51.86 15.331 51.5438 15.1398C51.235 14.9413 50.8563 14.842 50.4078 14.842C49.9592 14.842 49.5769 14.9375 49.2607 15.1288C48.9446 15.3199 48.6872 15.5809 48.4887 15.9118C48.2902 16.2428 48.1467 16.6287 48.0585 17.07C47.9703 17.5111 47.9262 17.978 47.9262 18.4707Z" fill="#1D1E1C"/>
<path d="M65.6266 21.9008C65.428 22.2684 65.1854 22.5809 64.8986 22.8383C64.6193 23.0956 64.3067 23.3089 63.9612 23.478C63.6229 23.6397 63.259 23.761 62.8693 23.842C62.4869 23.9155 62.0935 23.9523 61.6891 23.9523C61.0126 23.9523 60.395 23.8309 59.8361 23.5882C59.2773 23.3456 58.7957 22.9963 58.3913 22.5405C57.9942 22.0773 57.6854 21.511 57.4648 20.842C57.2442 20.1728 57.1339 19.4081 57.1339 18.5478C57.1339 17.739 57.2369 16.9816 57.4428 16.2757C57.6486 15.5699 57.9464 14.9559 58.3362 14.4339C58.7333 13.9118 59.2185 13.5 59.7921 13.1986C60.3655 12.8971 61.02 12.7463 61.7553 12.7463C62.5935 12.7463 63.3362 12.9081 63.9832 13.2316C64.6376 13.5552 65.2002 14.0846 65.6708 14.8198V14.5332C65.6708 14.0037 65.8141 13.6067 66.1009 13.3419C66.395 13.0699 66.7994 12.9338 67.3141 12.9338C67.6229 12.9338 67.8839 12.9853 68.0972 13.0883C68.3104 13.1839 68.4795 13.3309 68.6045 13.5295C68.7296 13.7206 68.8178 13.9596 68.8693 14.2464C68.9281 14.5257 68.9574 14.8456 68.9574 15.2059V22.5957C68.9574 23.4927 68.8436 24.2941 68.6156 25C68.395 25.7059 68.0494 26.3015 67.5788 26.7868C67.1082 27.2721 66.5053 27.6397 65.77 27.8898C65.0347 28.1471 64.1597 28.2757 63.145 28.2757C62.4318 28.2757 61.7994 28.2427 61.2479 28.1765C60.7038 28.1177 60.2332 28.0258 59.8361 27.9008C59.4391 27.761 59.1377 27.6067 58.9317 27.4375C58.7333 27.2684 58.634 27.0478 58.634 26.7758C58.634 26.6213 58.656 26.4743 58.7001 26.3346C58.7443 26.1949 58.8104 26.0699 58.8986 25.9596C58.9942 25.8566 59.1156 25.7721 59.2627 25.7059C59.417 25.6471 59.6045 25.6177 59.8251 25.6177C60.0604 25.6177 60.2957 25.6324 60.531 25.6618C60.7736 25.6912 61.0237 25.7206 61.281 25.75C61.5457 25.7868 61.8214 25.8198 62.1082 25.8493C62.4023 25.8787 62.7185 25.8934 63.0567 25.8934C63.4612 25.8934 63.8214 25.853 64.1377 25.7721C64.4538 25.6912 64.7221 25.5478 64.9428 25.3419C65.1634 25.1361 65.3325 24.8603 65.4501 24.5147C65.5678 24.1765 65.6266 23.7427 65.6266 23.2133V21.9008ZM65.6266 18.4707C65.6266 17.9338 65.5862 17.4449 65.5053 17.0037C65.4318 16.5625 65.303 16.1876 65.1192 15.8787C64.9354 15.5625 64.6891 15.3199 64.3803 15.1508C64.0714 14.9743 63.6854 14.8861 63.2222 14.8861C62.7663 14.8861 62.3877 14.978 62.0862 15.1618C61.7921 15.3456 61.5568 15.5993 61.3803 15.9228C61.2038 16.2464 61.0789 16.625 61.0053 17.0589C60.9391 17.4927 60.9061 17.9559 60.9061 18.4485C60.9061 19.5735 61.1046 20.4192 61.5016 20.9853C61.8986 21.5515 62.4758 21.8346 63.2332 21.8346C63.5861 21.8273 63.9061 21.761 64.1927 21.636C64.4869 21.5037 64.7406 21.3015 64.9538 21.0294C65.167 20.7573 65.3325 20.4117 65.4501 19.9926C65.5678 19.5735 65.6266 19.0662 65.6266 18.4707Z" fill="#1D1E1C"/>
<path d="M69.9704 18.4707C69.9704 17.6912 70.0954 16.956 70.3454 16.2648C70.6028 15.5662 70.9851 14.956 71.4925 14.4339C72.0072 13.9118 72.6468 13.4964 73.4116 13.1876C74.1837 12.8787 75.0881 12.7244 76.1249 12.7244C77.1174 12.7244 77.9961 12.8677 78.7608 13.1545C79.5255 13.4413 80.1689 13.842 80.691 14.3567C81.2131 14.864 81.6101 15.4706 81.8821 16.1765C82.1542 16.875 82.2902 17.6398 82.2902 18.4707C82.2902 19.2428 82.1616 19.9743 81.9043 20.6655C81.6468 21.3493 81.2609 21.9523 80.7461 22.4744C80.2314 22.989 79.588 23.4008 78.816 23.7097C78.0439 24.0111 77.1469 24.1618 76.1249 24.1618C75.1174 24.1618 74.2277 24.0185 73.4557 23.7317C72.691 23.4376 72.0476 23.0368 71.5255 22.5294C71.0109 22.0148 70.6212 21.4119 70.3564 20.7207C70.0991 20.0222 69.9704 19.2721 69.9704 18.4707ZM73.6432 18.4707C73.6432 18.956 73.6873 19.4192 73.7756 19.8604C73.8638 20.2942 74.0035 20.6766 74.1947 21.0075C74.3932 21.3383 74.6505 21.603 74.9668 21.8015C75.2829 21.9927 75.669 22.0883 76.1249 22.0883C76.544 22.0883 76.9079 22.0001 77.2167 21.8236C77.5329 21.6472 77.7903 21.4008 77.9888 21.0846C78.1947 20.7685 78.3491 20.3898 78.452 19.9486C78.555 19.5001 78.6065 19.0075 78.6065 18.4707C78.6065 17.9854 78.5587 17.5258 78.463 17.092C78.3749 16.6509 78.2314 16.2648 78.0329 15.9339C77.8344 15.5957 77.577 15.331 77.2609 15.1398C76.9521 14.9413 76.5733 14.842 76.1249 14.842C75.6763 14.842 75.2939 14.9375 74.9778 15.1288C74.6616 15.3199 74.4042 15.5809 74.2057 15.9118C74.0072 16.2428 73.8638 16.6287 73.7756 17.07C73.6873 17.5111 73.6432 17.978 73.6432 18.4707Z" fill="#1D1E1C"/>
<path d="M87.0201 9.00724C87.0201 9.24989 86.965 9.46679 86.8547 9.65797C86.7444 9.8418 86.601 9.99617 86.4246 10.1212C86.2481 10.2462 86.0422 10.3418 85.8069 10.4079C85.579 10.4668 85.3437 10.4962 85.101 10.4962C84.8437 10.4962 84.5974 10.4631 84.3621 10.3969C84.1341 10.3308 83.9319 10.2352 83.7555 10.1101C83.579 9.97781 83.4392 9.81973 83.3363 9.63591C83.2334 9.45209 83.1819 9.24253 83.1819 9.00724C83.1819 8.794 83.2297 8.59915 83.3253 8.42268C83.4282 8.23886 83.5642 8.08077 83.7334 7.94841C83.9025 7.81606 84.1047 7.71312 84.34 7.63959C84.5753 7.56606 84.8326 7.5293 85.1121 7.5293C85.3547 7.5293 85.59 7.56239 85.818 7.62856C86.0533 7.69474 86.2591 7.79032 86.4356 7.91533C86.612 8.04033 86.7518 8.19474 86.8547 8.37856C86.965 8.56239 87.0201 8.77194 87.0201 9.00724ZM86.8547 21.8565C86.8547 22.555 86.7113 23.0918 86.4246 23.4668C86.1451 23.8418 85.6782 24.0293 85.0238 24.0293C84.4062 24.0293 83.9686 23.8418 83.7113 23.4668C83.4614 23.0918 83.3363 22.555 83.3363 21.8565V15.1065C83.3363 14.4079 83.4614 13.8712 83.7113 13.4962C83.9686 13.1213 84.4062 12.9337 85.0238 12.9337C85.6782 12.9337 86.1451 13.1213 86.4246 13.4962C86.7113 13.8712 86.8547 14.4079 86.8547 15.1065V21.8565Z" fill="#1D1E1C"/>
<path d="M91.9265 18.4485C91.9265 18.9413 91.9632 19.4007 92.0368 19.8273C92.1176 20.2537 92.25 20.6287 92.4338 20.9523C92.625 21.2684 92.875 21.5184 93.1838 21.7022C93.4999 21.8861 93.8897 21.978 94.3529 21.978C94.7794 21.978 95.136 21.8898 95.423 21.7133C95.7167 21.5295 95.952 21.2794 96.1289 20.9633C96.3049 20.6397 96.4301 20.2611 96.5035 19.8273C96.5845 19.3934 96.6249 18.9228 96.6249 18.4155C96.6249 18.0111 96.5957 17.5993 96.5365 17.1802C96.4781 16.7537 96.368 16.3677 96.2061 16.0221C96.0442 15.6765 95.8202 15.3934 95.5332 15.1728C95.2461 14.9523 94.8715 14.842 94.4081 14.842C93.9448 14.842 93.5514 14.9155 93.2279 15.0626C92.9117 15.2096 92.6544 15.4339 92.4559 15.7353C92.2646 16.0368 92.1286 16.4155 92.0478 16.8713C91.9669 17.3199 91.9265 17.8456 91.9265 18.4485ZM91.9155 15.1066C92.0993 14.717 92.3346 14.375 92.6214 14.0809C92.908 13.7868 93.2243 13.5405 93.5699 13.3419C93.9155 13.1434 94.2757 12.9963 94.6507 12.9008C95.0334 12.7978 95.4118 12.7463 95.7863 12.7463C96.463 12.7463 97.0739 12.8971 97.6179 13.1986C98.1619 13.5 98.6249 13.9118 99.007 14.4339C99.3967 14.9486 99.695 15.5589 99.9012 16.2647C100.106 16.9633 100.21 17.7133 100.21 18.5147C100.21 19.3456 100.099 20.1066 99.8786 20.7978C99.6659 21.489 99.36 22.0846 98.9628 22.5845C98.5732 23.0773 98.1026 23.4632 97.551 23.7427C97.007 24.0221 96.4009 24.1618 95.7318 24.1618C94.9082 24.1618 94.1728 23.9706 93.5257 23.5882C92.8787 23.2059 92.3419 22.6692 91.9155 21.978V25.9486C91.9155 26.647 91.772 27.1839 91.4853 27.5589C91.2058 27.9338 90.739 28.1214 90.0845 28.1214C89.4669 28.1214 89.0294 27.9338 88.772 27.5589C88.5221 27.1839 88.3971 26.647 88.3971 25.9486V15.1066C88.3971 14.4081 88.5221 13.8713 88.772 13.4964C89.0294 13.1214 89.4669 12.9338 90.0845 12.9338C90.739 12.9338 91.2058 13.1214 91.4853 13.4964C91.772 13.8713 91.9155 14.4081 91.9155 15.1066Z" fill="#1D1E1C"/>
<path d="M104.09 15.8898C104.09 16.1765 104.216 16.4008 104.465 16.5626C104.715 16.717 105.061 16.8457 105.502 16.9486C105.921 17.0442 106.351 17.1361 106.792 17.2243C107.234 17.3126 107.664 17.4156 108.083 17.5332C108.502 17.6434 108.895 17.7758 109.263 17.9302C109.63 18.0846 109.954 18.2795 110.233 18.5148C110.513 18.7427 110.733 19.0222 110.895 19.353C111.057 19.6766 111.138 20.0663 111.138 20.5221C111.138 21.0957 111.02 21.6067 110.785 22.0552C110.55 22.4964 110.216 22.8714 109.782 23.1803C109.355 23.4891 108.844 23.728 108.248 23.8972C107.653 24.0663 106.995 24.1545 106.274 24.1618C105.591 24.1618 104.932 24.1178 104.299 24.0295C103.668 23.9486 103.105 23.8199 102.612 23.6434C102.127 23.467 101.737 23.2501 101.443 22.9927C101.149 22.728 101.002 22.4192 101.002 22.0663C101.002 21.7574 101.101 21.5184 101.3 21.3493C101.498 21.1803 101.752 21.0957 102.061 21.0957C102.179 21.0957 102.318 21.1177 102.48 21.1618C102.642 21.206 102.818 21.2611 103.009 21.3273C103.2 21.3934 103.402 21.467 103.616 21.5479C103.836 21.6214 104.064 21.6876 104.299 21.7464C104.594 21.8273 104.895 21.8935 105.204 21.945C105.52 21.989 105.844 22.0111 106.175 22.0111C106.38 22.0111 106.583 21.9927 106.781 21.956C106.98 21.9118 107.157 21.8494 107.311 21.7685C107.473 21.6802 107.605 21.5699 107.708 21.4376C107.811 21.3053 107.873 21.1435 107.896 20.9523C107.917 20.9082 107.936 20.864 107.95 20.8199C107.965 20.7758 107.973 20.7244 107.973 20.6655C107.973 20.4596 107.877 20.2758 107.686 20.114C107.502 19.9523 107.24 19.8236 106.903 19.728C106.336 19.5957 105.796 19.4744 105.281 19.3641C104.767 19.2538 104.289 19.1361 103.848 19.0111C103.414 18.8862 103.016 18.7427 102.656 18.5809C102.303 18.4192 102.002 18.2206 101.752 17.9854C101.51 17.7501 101.318 17.467 101.178 17.1361C101.046 16.8052 100.98 16.4045 100.98 15.9339C100.98 15.4266 101.094 14.9743 101.321 14.5773C101.557 14.1728 101.892 13.8347 102.326 13.5626C102.76 13.2905 103.285 13.0846 103.903 12.945C104.52 12.7979 105.219 12.7244 105.998 12.7244C107.395 12.7244 108.457 12.8935 109.186 13.2317C109.921 13.5626 110.289 13.9964 110.289 14.5332C110.289 14.8347 110.189 15.0663 109.991 15.228C109.792 15.3824 109.553 15.4596 109.274 15.4596C109.127 15.4596 108.972 15.4339 108.81 15.3824C108.656 15.3236 108.469 15.2611 108.248 15.195C108.027 15.1214 107.763 15.059 107.454 15.0075C107.153 14.9486 106.777 14.9192 106.329 14.9192C105.991 14.9192 105.682 14.9339 105.402 14.9633C105.13 14.9927 104.895 15.0442 104.696 15.1177C104.505 15.1913 104.355 15.2905 104.245 15.4156C104.141 15.5406 104.09 15.6986 104.09 15.8898Z" fill="#1D1E1C"/>
<path d="M115.614 19.9375C115.614 20.2831 115.658 20.5846 115.747 20.842C115.842 21.0993 115.971 21.3162 116.133 21.4927C116.295 21.6618 116.482 21.7905 116.695 21.8787C116.916 21.9596 117.151 22.0001 117.4 22.0001C117.695 22.0001 117.978 21.956 118.25 21.8677C118.522 21.7795 118.761 21.6434 118.968 21.4596C119.18 21.2758 119.35 21.0441 119.475 20.7647C119.599 20.4854 119.662 20.1581 119.662 19.7832V15.1066C119.662 14.4081 119.787 13.8713 120.037 13.4964C120.295 13.1214 120.732 12.9338 121.35 12.9338C122.004 12.9338 122.471 13.1214 122.75 13.4964C123.037 13.8713 123.18 14.4081 123.18 15.1066V21.8567C123.18 22.5552 123.037 23.092 122.75 23.4669C122.471 23.842 122.004 24.0295 121.35 24.0295C120.732 24.0295 120.295 23.842 120.037 23.4669C119.787 23.092 119.662 22.5552 119.662 21.8567C119.508 22.1949 119.305 22.5037 119.055 22.7832C118.812 23.0626 118.526 23.3052 118.195 23.5111C117.871 23.7096 117.512 23.864 117.114 23.9743C116.725 24.0846 116.301 24.1398 115.846 24.1398C115.353 24.1398 114.879 24.0552 114.423 23.8861C113.975 23.7096 113.577 23.4522 113.232 23.114C112.887 22.7685 112.611 22.3419 112.405 21.8346C112.199 21.3272 112.096 20.7353 112.096 20.0588V15.1066C112.096 14.4081 112.221 13.8713 112.471 13.4964C112.728 13.1214 113.165 12.9338 113.784 12.9338C114.438 12.9338 114.904 13.1214 115.184 13.4964C115.471 13.8713 115.614 14.4081 115.614 15.1066V19.9375Z" fill="#1D1E1C"/>
<path d="M124.777 15.1066C124.777 14.4081 124.903 13.8713 125.153 13.4964C125.41 13.1214 125.848 12.9338 126.465 12.9338C127.12 12.9338 127.587 13.1214 127.866 13.4964C128.152 13.8713 128.296 14.4081 128.296 15.1066C128.443 14.7537 128.642 14.4339 128.892 14.1471C129.149 13.853 129.44 13.603 129.763 13.3971C130.094 13.1912 130.451 13.0331 130.833 12.9228C131.215 12.8052 131.612 12.7463 132.024 12.7463C132.407 12.7463 132.781 12.7978 133.149 12.9008C133.524 12.9963 133.87 13.1544 134.186 13.375C134.509 13.5882 134.792 13.8603 135.035 14.1912C135.278 14.5221 135.465 14.9191 135.598 15.3824C135.826 14.8898 136.094 14.4743 136.403 14.1361C136.712 13.7978 137.047 13.5257 137.406 13.3199C137.767 13.114 138.142 12.9669 138.532 12.8787C138.929 12.7905 139.325 12.7463 139.722 12.7463C140.193 12.7463 140.642 12.831 141.068 13C141.502 13.1691 141.88 13.4265 142.204 13.7721C142.536 14.1103 142.796 14.5405 142.987 15.0626C143.186 15.5772 143.285 16.1802 143.285 16.8713V21.8566C143.285 22.5552 143.142 23.0919 142.855 23.4669C142.576 23.842 142.108 24.0294 141.454 24.0294C140.837 24.0294 140.399 23.842 140.142 23.4669C139.892 23.0919 139.767 22.5552 139.767 21.8566V17.0258C139.767 16.6949 139.722 16.4007 139.635 16.1434C139.546 15.8787 139.421 15.6581 139.259 15.4817C139.105 15.2979 138.921 15.1618 138.708 15.0736C138.495 14.978 138.266 14.9301 138.024 14.9301C137.722 14.9301 137.436 14.978 137.164 15.0736C136.892 15.1691 136.653 15.3162 136.447 15.5147C136.248 15.7133 136.087 15.9669 135.961 16.2757C135.844 16.5845 135.785 16.9559 135.785 17.3897V21.8566C135.785 22.5552 135.641 23.0919 135.355 23.4669C135.076 23.842 134.609 24.0294 133.954 24.0294C133.336 24.0294 132.899 23.842 132.642 23.4669C132.392 23.0919 132.266 22.5552 132.266 21.8566V17.2353C132.266 16.478 132.108 15.9045 131.793 15.5147C131.483 15.1251 131.061 14.9301 130.524 14.9301C130.208 14.9301 129.913 14.9816 129.641 15.0846C129.369 15.1876 129.134 15.3382 128.936 15.5368C128.737 15.7353 128.579 15.9816 128.461 16.2757C128.351 16.5699 128.296 16.9081 128.296 17.2904V21.8566C128.296 22.5552 128.152 23.0919 127.866 23.4669C127.587 23.842 127.12 24.0294 126.465 24.0294C125.848 24.0294 125.41 23.842 125.153 23.4669C124.903 23.0919 124.777 22.5552 124.777 21.8566V15.1066Z" fill="#1D1E1C"/>
<path d="M16.7294 22.1471C13.6106 22.1471 11.0823 19.6189 11.0823 16.5001C11.0823 13.3813 13.6106 10.853 16.7294 10.853C19.8482 10.853 22.3765 13.3813 22.3765 16.5001C22.3765 19.6189 19.8482 22.1471 16.7294 22.1471Z" fill="#1D1E1C"/>
<path d="M5.78938 18.429C4.15291 18.7176 3.0312 20.2984 3.65939 21.8368C4.53641 23.9846 5.93559 25.8982 7.74953 27.3935C10.3433 29.5316 13.6149 30.6741 16.9758 30.6155C20.3367 30.5568 23.5665 29.3008 26.0841 27.0734C27.8447 25.5158 29.1763 23.5545 29.9779 21.3774C30.552 19.818 29.3757 18.2773 27.7302 18.0461C26.0847 17.8148 24.6072 19.0126 23.7944 20.462C23.3539 21.2476 22.7819 21.9603 22.0967 22.5665C20.6522 23.8446 18.7991 24.5651 16.8709 24.5988C14.9425 24.6324 13.0654 23.977 11.5772 22.7502C10.8712 22.1682 10.2748 21.4759 9.80706 20.7061C8.9442 19.286 7.42585 18.1405 5.78938 18.429Z" fill="#1D1E1C"/>
<path d="M30.7379 18.2642C30.81 17.6862 30.847 17.0974 30.847 16.5C30.847 8.70301 24.5264 2.38232 16.7294 2.38232C8.93244 2.38232 2.61176 8.70301 2.61176 16.5C2.61176 17.2667 2.67288 18.0192 2.79054 18.7529C3.43899 17.8651 4.45106 17.2315 5.54424 17.0387C6.727 16.8301 7.80195 17.117 8.71083 17.6532C8.65714 17.2765 8.62935 16.8915 8.62935 16.5C8.62935 12.0265 12.2559 8.39992 16.7294 8.39992C21.2029 8.39992 24.8295 12.0265 24.8295 16.5C24.8295 16.7949 24.8136 17.0862 24.783 17.373C25.6726 16.8052 26.7371 16.4808 27.9267 16.648C29.0256 16.8025 30.0588 17.4001 30.7379 18.2642Z" fill="#1D1E1C"/>
</svg>
