<svg width="153" height="19" viewBox="0 0 153 19" fill="none" xmlns="http://www.w3.org/2000/svg">
<path d="M76.4224 16.3741H71.3024V2.68611H76.4224V16.3741ZM71.8024 15.8741H75.9224V3.18611H71.8024V15.8741ZM83.5464 16.3741H78.5294V2.68611H89.0114C90.513 2.56451 92.0084 2.98608 93.2254 3.87411C93.7493 4.35342 94.1554 4.9473 94.4119 5.6094C94.6685 6.27151 94.7686 6.98394 94.7044 7.69111C94.7792 8.91308 94.3903 10.1183 93.6154 11.0661C92.6984 12.1181 91.1724 12.6601 89.0804 12.6791C88.5534 12.6931 84.6044 12.6791 83.5494 12.6791L83.5464 16.3741ZM79.0264 15.8741H83.0464V12.1741H83.2974C83.3484 12.1741 88.4754 12.1901 89.0684 12.1741C91.0174 12.1571 92.4184 11.6741 93.2374 10.7311C93.9272 9.87356 94.2698 8.78826 94.1974 7.69011C94.2589 7.05648 94.1736 6.4172 93.9482 5.82185C93.7227 5.2265 93.3632 4.69108 92.8974 4.25711C91.769 3.44721 90.3884 3.06704 89.0044 3.18511H79.0294L79.0264 15.8741ZM87.9494 9.60411H83.0124V5.87811H87.9824C88.3347 5.82943 88.6936 5.87055 89.0257 5.99764C89.3579 6.12474 89.6526 6.33369 89.8824 6.60511C90.0909 6.95205 90.1892 7.35409 90.1644 7.75811C90.1831 8.13321 90.1021 8.50658 89.9294 8.84011C89.6923 9.12599 89.3856 9.34606 89.0388 9.47916C88.6921 9.61226 88.3169 9.65391 87.9494 9.60011V9.60411ZM83.5124 9.10411H87.9494C88.7694 9.10411 89.2774 8.93311 89.5024 8.58111C89.6263 8.32526 89.6824 8.04187 89.6654 7.75811C89.6873 7.46017 89.6227 7.16225 89.4794 6.90011L89.4734 6.89111C89.2354 6.54111 88.7624 6.37811 87.9824 6.37811H83.5124V9.10411ZM103.829 16.5761C99.3394 16.5761 96.6594 15.4611 95.6384 13.1681C95.4713 12.7252 95.3579 12.2639 95.3004 11.7941L95.2564 11.5061H100.598L100.633 11.7161C100.674 11.9293 100.765 12.13 100.897 12.3021C101.108 12.5571 101.812 12.9851 104.148 12.9851C106.956 12.9851 106.956 12.4921 106.956 12.2271C106.956 11.7801 106.631 11.6271 104.341 11.3831L103.906 11.3421C103.044 11.2611 101.954 11.1581 101.456 11.1151C97.2564 10.7351 95.3814 9.43011 95.3814 6.88511C95.3814 4.21211 98.5724 2.48511 103.511 2.48511C107.54 2.48511 110.136 3.54711 111.225 5.64411C111.483 6.13189 111.657 6.6601 111.738 7.20611L111.773 7.48711H106.425L106.403 7.26111C106.382 7.08449 106.307 6.9188 106.187 6.78711C105.987 6.51911 105.355 6.07611 103.393 6.07611C100.984 6.07611 100.652 6.38411 100.652 6.71611C100.652 7.15911 101.413 7.31611 103.852 7.57711C104.869 7.66011 106.504 7.82811 107.064 7.89611C110.585 8.27811 112.156 9.55111 112.156 12.0251C112.157 14.1001 110.712 16.5761 103.829 16.5761ZM95.8404 12.0061C95.8905 12.3359 95.9767 12.6591 96.0974 12.9701C97.0274 15.0591 99.5574 16.0761 103.829 16.0761C107.401 16.0761 111.66 15.3761 111.66 12.0251C111.66 9.83211 110.27 8.74611 107.011 8.39311C106.451 8.32511 104.826 8.15811 103.811 8.07411C101.211 7.79211 100.154 7.64211 100.154 6.71611C100.154 5.75811 101.293 5.57611 103.395 5.57611C105.056 5.57611 106.129 5.87611 106.584 6.48111C106.708 6.63016 106.802 6.80206 106.86 6.98711H111.194C111.107 6.60036 110.969 6.2268 110.784 5.87611C109.784 3.95711 107.341 2.98511 103.513 2.98511C98.8784 2.98511 95.8834 4.51611 95.8834 6.88511C95.8834 9.14511 97.5644 10.2611 101.502 10.6171C102.002 10.6601 103.091 10.7631 103.955 10.8451L104.393 10.8861C106.52 11.1101 107.458 11.2501 107.458 12.2271C107.458 13.2791 106.245 13.4851 104.15 13.4851C102.212 13.4851 100.988 13.1941 100.515 12.6211C100.37 12.4384 100.26 12.2297 100.191 12.0061H95.8404ZM121.656 16.5591C116.436 16.5591 113.556 14.4481 113.556 10.6141V2.68611H118.608V10.6141C118.608 11.9291 119.785 12.6831 121.836 12.6831C123.796 12.6831 125.013 11.8961 125.013 10.6311V2.68611H130.013V11.0341C130.018 14.5451 126.969 16.5591 121.653 16.5591H121.656ZM114.056 3.18611V10.6141C114.056 15.3521 118.814 16.0591 121.656 16.0591C124.594 16.0591 129.521 15.4061 129.521 11.0341V3.18611H125.521V10.6311C125.521 12.1811 124.077 13.1831 121.844 13.1831C119.51 13.1831 118.116 12.2231 118.116 10.6141V3.18611H114.056ZM151.201 16.3741H146.433V10.1941L143.729 16.3741H139.57L136.894 10.2061V16.3741H132.109V2.68611H138.403L141.673 10.2331L145.101 2.68611H151.207L151.201 16.3741ZM146.933 15.8741H150.701V3.18611H145.419L141.657 11.4651L138.071 3.18611H132.605V15.8741H136.39V7.80011L139.89 15.8771H143.39L146.927 7.81211L146.933 15.8741ZM6.7834 2.93611H2.2294V16.1241H14.8134V12.6131H6.7834V2.93611ZM24.0054 2.63611C18.1924 2.63611 15.1354 5.39111 15.1354 9.43611C15.1354 14.0061 18.3444 16.3241 24.0054 16.3241C30.2374 16.3241 32.8584 13.6361 32.8584 9.43611C32.8584 5.17111 29.9014 2.63411 24.0054 2.63411V2.63611ZM23.9884 6.06311C24.3841 6.06125 24.7796 6.08429 25.1724 6.13211L20.0814 11.2231C19.8405 10.6782 19.723 10.0867 19.7374 9.49111C19.7374 7.42211 20.7794 6.06111 23.9884 6.06111V6.06311ZM24.0054 12.9511C23.6241 12.9528 23.2431 12.9314 22.8644 12.8871L27.9644 7.78711C28.1963 8.32301 28.3073 8.90344 28.2894 9.48711C28.2894 11.5001 27.3294 12.9491 24.0054 12.9491V12.9511ZM41.8814 11.1511H46.5684C46.4994 11.4764 46.3556 11.7811 46.1484 12.0411C45.1767 12.8327 43.9366 13.2179 42.6874 13.1161C42.0586 13.1834 41.4228 13.1147 40.8229 12.9147C40.223 12.7148 39.673 12.3882 39.2104 11.9571C38.7365 11.262 38.5114 10.4272 38.5714 9.58811C38.4947 8.70885 38.7395 7.83163 39.2604 7.11911C39.9154 6.37911 41.0244 6.06011 42.6544 6.06011C43.6915 5.97424 44.7273 6.24059 45.5944 6.81611C45.8677 7.03319 46.072 7.32502 46.1824 7.65611H50.5294C50.4978 7.11058 50.3666 6.57544 50.1424 6.07711C49.1014 3.96011 46.6814 2.70011 42.5664 2.70011C38.9874 2.70011 36.5854 3.79211 35.2584 5.43911C34.382 6.62847 33.9321 8.07855 33.9814 9.55511C33.9247 11.0651 34.363 12.5522 35.2294 13.7901C36.5404 15.4901 38.8754 16.3261 41.6814 16.3261C43.5469 16.4562 45.3997 15.9337 46.9224 14.8481L47.0404 16.1241H50.6514V8.31211H41.8814V11.1511ZM60.9004 2.63311C55.0884 2.63311 52.0304 5.38811 52.0304 9.43311C52.0304 14.0031 55.2384 16.3211 60.9004 16.3211C67.1334 16.3211 69.7544 13.6331 69.7544 9.43311C69.7544 5.17111 66.7974 2.63411 60.9004 2.63411V2.63311ZM60.8844 6.06011C61.2697 6.05897 61.6547 6.08101 62.0374 6.12611L56.9664 11.2001C56.733 10.6612 56.6194 10.0782 56.6334 9.49111C56.6294 7.42211 57.6754 6.06011 60.8844 6.06011ZM60.9004 12.9481C60.509 12.9498 60.1179 12.927 59.7294 12.8801L64.8464 7.76211C65.0871 8.30514 65.2023 8.89543 65.1834 9.48911C65.1854 11.5001 64.2294 12.9491 60.9004 12.9491V12.9481Z" fill="#1D1E1C"/>
</svg>
