<svg width="49" height="48" viewBox="0 0 49 48" fill="none" xmlns="http://www.w3.org/2000/svg">
<g clip-path="url(#clip0_1_242)">
<path d="M42.5204 21.7031C42.6176 22.4648 42.6664 23.232 42.6667 23.9999C42.6695 27.3633 41.7292 30.66 39.9527 33.5158C38.1761 36.3716 35.6345 38.6721 32.6163 40.1561C29.5981 41.6401 26.2242 42.2482 22.8778 41.9113C19.5315 41.5743 16.3466 40.3059 13.6848 38.2499C18.4079 37.0949 23.9636 34.7006 29.1423 31.7249C34.6623 28.5543 39.3217 25.0237 42.5204 21.7031ZM46.6248 11.3774C45.1904 8.90432 41.4048 8.34745 35.6561 9.7537C32.9946 7.69577 29.8093 6.42553 26.4621 6.08726C23.1148 5.74899 19.7398 6.35625 16.7204 7.84007C13.701 9.32389 11.1583 11.6248 9.38113 14.4813C7.60393 17.3379 6.66351 20.6357 6.66668 23.9999C6.66691 24.7716 6.71576 25.5425 6.81293 26.3081C1.62105 31.6874 1.69605 34.8749 2.71043 36.6224C3.66668 38.2799 5.66168 38.9999 8.28668 38.9999C10.1092 38.9622 11.921 38.7105 13.6848 38.2499C12.7177 37.5023 11.8282 36.6593 11.0298 35.7337C7.78793 36.2737 5.7798 35.9212 5.30543 35.1168C5.03168 34.6462 5.18355 33.7593 5.72168 32.6793C6.25376 31.6678 6.90052 30.721 7.64918 29.8574C7.65006 29.8519 7.65006 29.8462 7.64918 29.8406V29.8556C8.3933 32.0086 9.53848 34.0012 11.0242 35.7281C14.9504 35.0737 20.6786 33.1199 27.6423 29.1187C32.9167 26.0981 38.5417 21.8756 41.6898 18.1537C40.9485 15.9977 39.8031 14.0027 38.3148 12.2756L38.2904 12.2474C38.2904 12.2568 38.3073 12.2643 38.3148 12.2756C40.9792 11.8349 43.4467 11.8687 44.0336 12.8831C44.2061 13.1774 44.2211 13.6181 44.0617 14.1956C43.7448 15.3787 42.9011 16.7324 41.6936 18.1574C42.0906 19.3092 42.3689 20.4985 42.5242 21.7068C44.8679 19.2693 46.4279 16.9537 46.9586 14.9718C47.3223 13.5956 47.2117 12.3881 46.6248 11.3774Z" fill="#1D1E1C"/>
</g>
<defs>
<clipPath id="clip0_1_242">
<rect width="48" height="48" fill="white" transform="translate(0.666687)"/>
</clipPath>
</defs>
</svg>
