<svg width="49" height="48" viewBox="0 0 49 48" fill="none" xmlns="http://www.w3.org/2000/svg">
<g clip-path="url(#clip0_1_258)">
<path d="M27.3334 15C27.3334 14.6022 27.4914 14.2207 27.7727 13.9394C28.054 13.6581 28.4355 13.5 28.8334 13.5H46.8334C47.2312 13.5 47.6127 13.6581 47.894 13.9394C48.1753 14.2207 48.3334 14.6022 48.3334 15C48.3334 15.3979 48.1753 15.7794 47.894 16.0607C47.6127 16.342 47.2312 16.5 46.8334 16.5H28.8334C28.4355 16.5 28.054 16.342 27.7727 16.0607C27.4914 15.7794 27.3334 15.3979 27.3334 15ZM46.8334 22.5H28.8334C28.4355 22.5 28.054 22.6581 27.7727 22.9394C27.4914 23.2207 27.3334 23.6022 27.3334 24C27.3334 24.3979 27.4914 24.7794 27.7727 25.0607C28.054 25.342 28.4355 25.5 28.8334 25.5H46.8334C47.2312 25.5 47.6127 25.342 47.894 25.0607C48.1753 24.7794 48.3334 24.3979 48.3334 24C48.3334 23.6022 48.1753 23.2207 47.894 22.9394C47.6127 22.6581 47.2312 22.5 46.8334 22.5ZM46.8334 31.5H33.3334C32.9355 31.5 32.554 31.6581 32.2727 31.9394C31.9914 32.2207 31.8334 32.6022 31.8334 33C31.8334 33.3979 31.9914 33.7794 32.2727 34.0607C32.554 34.342 32.9355 34.5 33.3334 34.5H46.8334C47.2312 34.5 47.6127 34.342 47.894 34.0607C48.1753 33.7794 48.3334 33.3979 48.3334 33C48.3334 32.6022 48.1753 32.2207 47.894 31.9394C47.6127 31.6581 47.2312 31.5 46.8334 31.5ZM20.8252 26.625C22.3139 25.4784 23.4064 23.8946 23.9494 22.0956C24.4924 20.2967 24.4587 18.373 23.8531 16.5941C23.2475 14.8153 22.1002 13.2707 20.5723 12.1769C19.0444 11.083 17.2125 10.4949 15.3334 10.4949C13.4543 10.4949 11.6223 11.083 10.0944 12.1769C8.5665 13.2707 7.41928 14.8153 6.81364 16.5941C6.208 18.373 6.17433 20.2967 6.71734 22.0956C7.26035 23.8946 8.3528 25.4784 9.84149 26.625C5.97524 28.2619 2.92837 31.5563 1.88024 35.625C1.82299 35.8468 1.81727 36.0786 1.86351 36.3029C1.90974 36.5272 2.00672 36.7379 2.14699 36.9189C2.28726 37.0999 2.46711 37.2464 2.67276 37.3471C2.8784 37.4478 3.10438 37.5002 3.33337 37.5H27.3334C27.5624 37.5002 27.7883 37.4478 27.994 37.3471C28.1996 37.2464 28.3795 37.0999 28.5197 36.9189C28.66 36.7379 28.757 36.5272 28.8032 36.3029C28.8495 36.0786 28.8437 35.8468 28.7865 35.625C27.7384 31.5544 24.6915 28.26 20.8252 26.625Z" fill="#1D1E1C"/>
</g>
<defs>
<clipPath id="clip0_1_258">
<rect width="48" height="48" fill="white" transform="translate(0.333374)"/>
</clipPath>
</defs>
</svg>
